<?xml version="1.0" encoding="UTF-8"?>
<svg id="Layer_1" data-name="Layer 1" xmlns="http://www.w3.org/2000/svg" viewBox="0 0 31.18 31.18">
  <defs>
    <style>
      .cls-1 {
        fill: #fcfcfc;
      }
    </style>
  </defs>
  <path id="icons8-weight-care-480" class="cls-1" d="M15.18,.7c-.79,0-1.53,.43-1.92,1.11H7.37c-.62,0-1.11,.5-1.11,1.11s.5,1.11,1.11,1.11l-2.23,4.46h1.39l1.95-3.9,1.95,3.9h1.39l-2.23-4.46h3.67c.19,.33,.47,.6,.8,.79v12.58c0,.18,.04,.36,.13,.52,.19,.36,.57,.59,.98,.59,.11,0,.22-.02,.32-.06,.47-.14,.79-.57,.79-1.06V4.84c.33-.19,.61-.46,.8-.79h3.65l-2.23,4.46h1.39l1.95-3.9,1.95,3.9h1.39l-2.23-4.46c.62,0,1.11-.5,1.11-1.11s-.5-1.11-1.11-1.11h-5.87c-.39-.69-1.13-1.11-1.92-1.11ZM5.14,10.73v.97c.64,1.85,2.66,2.82,4.51,2.18,1.02-.36,1.82-1.16,2.18-2.18v-.97H5.14Zm13.37,0v.97c.64,1.85,2.66,2.82,4.51,2.18,1.02-.36,1.82-1.16,2.18-2.18v-.97h-6.69Zm-11.14,6.6c-.43,0-.85,.09-1.25,.25l-5.44,1.98v8.91l4.7-2.04c.55-.24,1.18-.25,1.74-.02l10.11,4.13c.5,.23,1.07,.21,1.55-.05l10.02-5.57c.81-.45,1.1-1.47,.65-2.27-.3-.53-.85-.86-1.46-.86-.25,0-.49,.06-.71,.17l-7.64,3.18h-1.67c.92,0,1.67-.74,1.67-1.66,0-.73-.47-1.37-1.16-1.59l-9.69-4.24h-.01c-.44-.2-.92-.31-1.4-.31h0Z"/>
</svg>