<?xml version="1.0" encoding="UTF-8"?>
<svg id="Layer_1" data-name="Layer 1" xmlns="http://www.w3.org/2000/svg" viewBox="0 0 30 27.51">
  <defs>
    <style>
      .cls-1 {
        fill: #fcfcfc;
      }
    </style>
  </defs>
  <path id="icons8-heart-with-pulse-480" class="cls-1" d="M8.18,0C3.66,0,0,3.66,0,8.18H0c0,.61,.07,1.22,.18,1.82H2.71c.97,0,1.9,.38,2.59,1.06l.6,.59,2.98-5.96c.22-.46,.7-.73,1.21-.69,.51,.03,.94,.37,1.1,.85l2.67,8.01,.61-1.54c.56-1.41,1.92-2.33,3.44-2.33h2.43c.69-1.2,2.22-1.61,3.42-.92,1.2,.69,1.61,2.22,.92,3.42-.69,1.2-2.22,1.61-3.42,.92-.38-.22-.7-.54-.92-.92h-2.43c-.5,0-.94,.3-1.12,.76l-1.88,4.7c-.19,.47-.65,.79-1.16,.79h-.04c-.52-.02-.98-.36-1.15-.85l-2.8-8.39-2.4,4.8c-.31,.62-1.06,.87-1.67,.56-.12-.06-.22-.14-.32-.23l-1.83-1.8c-.22-.22-.53-.34-.84-.34H.86c2.37,6.19,9.04,11.67,12.51,14.4l.06,.05,.08,.07h0c.89,.67,2.12,.67,3.01,0h0l.03-.02,.02-.02,.02-.02c4.25-3.34,13.42-10.87,13.42-18.76C30,3.66,26.34,0,21.82,0h0c-4.32,0-6.82,3.75-6.82,3.75,0,0-2.5-3.75-6.82-3.75Z"/>
</svg>