<?xml version="1.0" encoding="utf-8"?>
<!-- Generator: Adobe Illustrator 27.0.1, SVG Export Plug-In . SVG Version: 6.00 Build 0)  -->
<svg version="1.1" id="Layer_1" xmlns="http://www.w3.org/2000/svg" xmlns:xlink="http://www.w3.org/1999/xlink" x="0px" y="0px"
	 viewBox="0 0 31.2 31.2" style="enable-background:new 0 0 31.2 31.2;" xml:space="preserve">
<style type="text/css">
	.st0{fill:#FFFFFF;}
</style>
<path class="st0" d="M21.1,1.1c-2.1,0-3.7,1.7-3.7,3.7c0,3.2,2.9,5.1,4.7,6.3c0.5,0.3,0.9,0.6,1.2,0.9l0.3,0.3l0.3-0.3
	c0.3-0.2,0.7-0.5,1.2-0.9c2-1.3,4.8-3.1,4.8-6.3c0-2-1.7-3.7-3.7-3.7c-1,0-1.9,0.4-2.6,1C23,1.5,22.1,1.1,21.1,1.1z M15,2.3
	C7.3,2.3,1.1,8.5,1.1,16.2S7.3,30.1,15,30.1s13.9-6.2,13.9-13.9c0-1.9-0.4-3.7-1.1-5.4c-0.7,0.5-1.3,0.9-1.8,1.3
	c-0.2,0.2-0.4,0.3-0.7,0.5c-0.2,0.1-0.4,0.2-0.5,0.4l-1.1,0.9l-1.2-1c-0.1-0.1-0.4-0.3-0.7-0.5l-0.4-0.2c-2-1.3-5.3-3.5-5.3-7.3
	c0-0.9,0.2-1.7,0.6-2.4C16.2,2.4,15.6,2.3,15,2.3z M10.2,12c1,0,1.8,0.8,1.8,1.8s-0.8,1.8-1.8,1.8s-1.8-0.8-1.8-1.8S9.2,12,10.2,12z
	 M19.8,12c1,0,1.8,0.8,1.8,1.8s-0.8,1.8-1.8,1.8S18,14.8,18,13.8S18.8,12,19.8,12z M7.2,18.6c0.2,0,0.3,0.1,0.4,0.2c0,0,2.9,4,7.4,4
	s7.3-3.9,7.4-4c0.2-0.3,0.6-0.3,0.8-0.1c0.3,0.2,0.3,0.6,0.1,0.8C23.2,19.7,20.1,24,15,24s-8.2-4.3-8.3-4.5
	c-0.2-0.3-0.1-0.6,0.1-0.8C6.9,18.6,7.1,18.6,7.2,18.6z"/>
</svg>
